<?xml version="1.0" standalone="no"?><!DOCTYPE svg PUBLIC "-//W3C//DTD SVG 1.1//EN" "http://www.w3.org/Graphics/SVG/1.1/DTD/svg11.dtd"><svg t="1581523266787" class="icon" viewBox="0 0 1365 1024" version="1.1" xmlns="http://www.w3.org/2000/svg" p-id="3224" xmlns:xlink="http://www.w3.org/1999/xlink" width="85.3125" height="64"><defs><style type="text/css"></style></defs><path d="M0.00256 503.978667c0-13.653333 6.4-26.709333 16.042667-34.986667L554.669227 11.349333A50.432 50.432 0 0 1 585.98656 0c27.306667 0 48.896 21.333333 48.896 48.042667V250.026667c411.818667 65.536 702.293333 362.922667 730.453333 744.96a32.170667 32.170667 0 0 1-31.317333 28.928 34.133333 34.133333 0 0 1-17.664-5.376c-71.424-49.493333-132.437333-86.869333-180.565333-111.274667-116.394667-63.317333-296.96-113.578667-500.053334-134.229333v187.562666a48.213333 48.213333 0 0 1-48.981333 48.042667 54.357333 54.357333 0 0 1-30.464-10.666667L17.66656 540.672A46.592 46.592 0 0 1 0.00256 503.893333z" p-id="3225" fill="#FFFFFF"></path></svg>