<svg t="1581756843614" class="icon" viewBox="0 0 1024 1024" version="1.1" xmlns="http://www.w3.org/2000/svg" p-id="2552" width="128" height="128"><path d="M518.12 516.16m-490 0a490 490 0 1 0 980 0 490 490 0 1 0-980 0Z" fill="#56B432" p-id="2553"></path><path d="M393.213619 664.335495m28.284271-28.284271l296.984849-296.984848q28.284271-28.284271 56.568542 0l0 0q28.284271 28.284271 0 56.568542l-296.984848 296.984848q-28.284271 28.284271-56.568543 0l0 0q-28.284271-28.284271 0-56.568542Z" fill="#FFFFFF" p-id="2554"></path><path d="M289.46984 452.847883m28.284271 28.284271l155.563492 155.563492q28.284271 28.284271 0 56.568543l0 0q-28.284271 28.284271-56.568543 0l-155.563491-155.563492q-28.284271-28.284271 0-56.568543l0 0q28.284271-28.284271 56.568542 0Z" fill="#FFFFFF" p-id="2555"></path></svg>