<svg t="1722481337425" class="icon" viewBox="0 0 1024 1024" version="1.1" xmlns="http://www.w3.org/2000/svg" p-id="1531" width="200" height="200"><path d="M707.84 514.304a255.36 255.36 0 1 1 0-510.72 255.36 255.36 0 0 1 0 510.72z m0-60.224a195.136 195.136 0 1 0 0.064-390.272 195.136 195.136 0 0 0 0 390.272z" fill="#d4237a" p-id="1532"></path><path d="M566.72 54.656l-25.92 54.4a177.28 177.28 0 1 0 35.456 298.24l37.952 46.72A237.568 237.568 0 1 1 566.72 54.592z" fill="#d4237a" p-id="1533"></path><path d="M921.408 504a30.08 30.08 0 1 1-26.88 53.952 420.416 420.416 0 0 0-607.04 376.768 30.08 30.08 0 0 1-60.224 0 480.64 480.64 0 0 1 694.144-430.72z" fill="#d4237a" p-id="1534"></path><path d="M545.92 465.024a30.08 30.08 0 0 1-14.08 58.56 334.72 334.72 0 0 0-413.248 325.376 30.08 30.08 0 0 1-60.288 0A394.88 394.88 0 0 1 545.92 465.088h0.064z m373.504 193.472c27.84 0 54.208 10.88 73.728 30.336 40.896 40.96 40.32 107.776-0.896 149.056l-118.208 118.208a32.256 32.256 0 0 1-45.632 0l-118.208-118.208a105.6 105.6 0 0 1-0.896-149.056 103.68 103.68 0 0 1 73.728-30.336c25.216 0 49.088 8.704 68.224 24.704 19.072-16 43.008-24.704 68.16-24.704zM851.2 919.296l111.168-111.232a63.36 63.36 0 0 0 0.896-89.408 63.616 63.616 0 0 0-89.472 0.896l-22.656 22.656-14.848-14.976-7.744-7.68a63.872 63.872 0 0 0-45.568-18.88 61.44 61.44 0 0 0-43.904 17.984 63.36 63.36 0 0 0 0.896 89.408l111.232 111.232z m101.312-121.088a49.408 49.408 0 0 0 0.832-69.76 47.616 47.616 0 0 0-33.984-13.824c-13.44 0-26.24 5.248-35.712 14.72l-15.616 15.68a23.936 23.936 0 0 1-33.792 0l-15.552-15.616a49.984 49.984 0 0 0-35.712-14.848 47.616 47.616 0 0 0-47.936 48.448 49.984 49.984 0 0 0 14.848 35.2l101.312 101.376 101.312-101.312v-0.064z m-98.688-98.624a92.16 92.16 0 0 1 65.536-27.136c24.192 0 46.976 9.344 63.808 26.24a91.52 91.52 0 0 1-0.832 129.408l-131.136 131.136-14.912-14.976-116.224-116.224a92.16 92.16 0 0 1-27.136-64.64 89.792 89.792 0 0 1 90.048-91.008c24.704 0 48 9.728 65.6 27.2l2.624 2.688 2.624-2.688z" fill="#d4237a" p-id="1535"></path></svg>