<svg t="1581329701461" class="icon" viewBox="0 0 1228 1024" version="1.1" xmlns="http://www.w3.org/2000/svg" p-id="3978" width="128" height="128"><path d="M1114.112 73.454933h-298.871467c-42.8032 0-77.960533 35.089067-77.960533 77.960534 0 42.871467 35.157333 78.0288 77.960533 78.0288h298.871467c42.871467 0 78.0288-35.157333 78.0288-78.0288S1157.12 73.5232 1114.112 73.5232zM1138.619733 424.482133h-218.043733c-42.8032 0-77.960533 35.157333-77.960533 78.0288 0 42.8032 35.157333 77.960533 77.960533 77.960534h218.043733c42.8032 0 77.960533-35.157333 77.960534-77.960534 0-43.008-35.0208-78.0288-77.960534-78.0288zM1127.970133 740.488533h-102.058666c-42.8032 0-77.960533 35.157333-77.960534 77.960534 0 42.871467 35.157333 78.0288 77.960534 78.0288h102.058666c42.8032 0 77.960533-35.157333 77.960534-78.0288 0-42.8032-35.0208-77.960533-77.960534-77.960534z" p-id="3979" fill="#43BA5D"></path><path d="M421.2736 248.968533m-245.76 0a245.76 245.76 0 1 0 491.52 0 245.76 245.76 0 1 0-491.52 0Z" p-id="3980" fill="#43BA5D"></path><path d="M867.191467 837.154133c0-198.792533-194.1504-307.336533-433.629867-307.336533C194.1504 529.8176 0 638.3616 0 837.154133s867.191467 198.792533 867.191467 0z" p-id="3981" fill="#43BA5D"></path></svg>