<?xml version="1.0" standalone="no"?><!DOCTYPE svg PUBLIC "-//W3C//DTD SVG 1.1//EN" "http://www.w3.org/Graphics/SVG/1.1/DTD/svg11.dtd"><svg class="icon" width="32px" height="32.00px" viewBox="0 0 1024 1024" version="1.1" xmlns="http://www.w3.org/2000/svg"><path d="M511.99790469 32.00502875C292.1133425 31.113605 113.09713719 212.20979844 111.99999969 436.62005188c0 110.03370938 44.114055 215.26744406 122.17078875 291.19847437l230.14736625 226.81024125c29.16556125 42.65120531 74.07961219 53.48543437 99.31376531 7.6571025l251.81582344-262.23862687a396.56935125 396.56935125 0 0 0 49.25688562-73.1881875A408.79785844 408.79785844 0 0 0 911.99580969 435.82005594C910.69295937 211.61551625 731.65389688 30.90789125 511.99790469 32.00502875z m0 694.19064938c-158.44488469-1.5542775-285.75850313-133.75929937-284.52422344-295.44988125 1.23427969-161.71343906 130.51360219-291.88418531 288.98134313-290.92419001 158.46774094 0.95999531 286.23850031 132.66216187 285.59850374 294.39845813a297.07272938 297.07272938 0 0 1-85.07383968 207.77034 285.14136375 285.14136375 0 0 1-204.204645 85.41669562l-0.77713875-1.2114225z" fill="#1296db" /><path d="M623.51732094 415.22587813h-83.95384594a15.81706031 15.81706031 0 0 1-13.11993188-5.25711469 17.37133781 17.37133781 0 0 1-4.20569156-14.01135563V251.34102219a36.09123938 36.09123938 0 0 0-11.19994219-27.40557 32.95982719 32.95982719 0 0 0-27.31414218-8.73138281c-16.73134125 4.50283313-28.57127906 20.11418062-28.86842063 38.17122843v198.01039125c1.02856594 19.65703969 15.54277594 35.63409937 34.28553469 37.75980188h136.68499875c10.28566031-0.20571281 19.97703844-5.07425906 26.55986063-13.32564469 6.55996594-8.22852844 9.37137938-19.0627575 7.70281687-29.64555844-4.02283594-17.80562062-19.0627575-30.51412594-36.57123656-30.94840968z" fill="#1296db" /></svg>