<svg t="1581329506177" class="icon" viewBox="0 0 1024 1024" version="1.1" xmlns="http://www.w3.org/2000/svg" p-id="1912" width="128" height="128"><path d="M902.099478 487.602087h-73.149217v-195.005217c0-53.871304-43.631304-97.54713-97.502609-97.547131h-195.049739V121.900522a121.989565 121.989565 0 0 0-243.845565 0v73.149217h-195.005218c-53.871304 0-97.057391 43.631304-97.057391 97.502609l-0.26713 185.299478h72.926608A131.739826 131.739826 0 0 1 204.8 609.502609a131.739826 131.739826 0 0 1-131.650783 131.695304H0.222609L0 926.497391C0 980.368696 43.631304 1024 97.502609 1024h185.299478v-73.149217A131.739826 131.739826 0 0 1 414.497391 819.2a131.739826 131.739826 0 0 1 131.650783 131.650783V1024h185.299478c53.871304 0 97.502609-43.631304 97.502609-97.502609v-195.049739h73.149217a121.989565 121.989565 0 0 0 0-243.845565z" p-id="1913" fill="#816CFF"></path></svg>