<?xml version="1.0" standalone="no"?><!DOCTYPE svg PUBLIC "-//W3C//DTD SVG 1.1//EN" "http://www.w3.org/Graphics/SVG/1.1/DTD/svg11.dtd"><svg t="1684413661597" class="icon" viewBox="0 0 1024 1024" version="1.1" xmlns="http://www.w3.org/2000/svg" p-id="2551" xmlns:xlink="http://www.w3.org/1999/xlink" width="200" height="200"><path d="M827.904 232.106667a31.573333 31.573333 0 0 0-31.573333-31.573334H423.594667v-63.146666a15.701333 15.701333 0 0 0-15.701334-15.872h-94.72a15.872 15.872 0 0 0-15.872 15.872v63.146666h-69.461333a31.573333 31.573333 0 0 0-31.573333 31.573334l-63.146667 221.866666a31.573333 31.573333 0 0 0 31.573333 30.72h694.613334a31.573333 31.573333 0 0 0 31.573333-31.573333L827.904 232.106667zM208.896 849.237333A30.208 30.208 0 0 0 238.933333 879.445333h212.48V678.741333a15.189333 15.189333 0 0 1 15.189334-15.189333h90.794666a15.189333 15.189333 0 0 1 15.189334 15.189333v200.704H785.066667a30.208 30.208 0 0 0 30.208-30.208V519.509333H208.896z" fill="#2499F6" p-id="2552"></path></svg>