<?xml version="1.0" standalone="no"?><!DOCTYPE svg PUBLIC "-//W3C//DTD SVG 1.1//EN" "http://www.w3.org/Graphics/SVG/1.1/DTD/svg11.dtd"><svg t="1604534860699" class="icon" viewBox="0 0 1024 1024" version="1.1" xmlns="http://www.w3.org/2000/svg" p-id="1583" xmlns:xlink="http://www.w3.org/1999/xlink" width="200" height="200"><defs><style type="text/css"></style></defs><path d="M523.73504 319.29344h-204.8c-16.896 0-30.72-13.824-30.72-30.72s13.824-30.72 30.72-30.72h204.8c16.896 0 30.72 13.824 30.72 30.72s-13.824 30.72-30.72 30.72zM605.65504 452.41344h-286.72c-16.896 0-30.72-13.824-30.72-30.72s13.824-30.72 30.72-30.72h286.72c16.896 0 30.72 13.824 30.72 30.72s-13.824 30.72-30.72 30.72z" fill="#FFFFFF" p-id="1584"></path><path d="M569.98912 669.2864c-2.41664 0-19.34336-16.92672-7.24992-48.35328 26.59328-26.60352 48.36352-70.12352 48.36352-113.64352 0-65.28-45.93664-99.13344-94.30016-99.13344-50.78016 0-94.30016 33.85344-94.30016 99.13344 0 43.52 19.34336 87.05024 45.93664 113.64352 9.66656 26.59328-7.24992 45.93664-12.09344 48.35328-53.1968 19.34336-113.64352 53.1968-113.64352 89.46688v12.09344c0 45.93664 89.46688 58.03008 174.09024 58.03008 82.20672 0 171.6736-9.66656 171.6736-58.03008v-12.09344c-2.41664-36.28032-65.28-72.54016-118.4768-89.46688z m0 0" fill="#3889FF" p-id="1585"></path><path d="M729.56928 582.23616c-2.41664 0-16.92672-4.83328-7.24992-33.85344 24.17664-24.17664 41.10336-65.28 41.10336-106.38336 0-60.44672-38.68672-94.30016-87.05024-94.30016-33.8432 0-65.28 16.92672-77.37344 50.78016 29.00992 24.17664 48.36352 60.44672 48.36352 108.8 0 50.78016-24.17664 99.13344-50.78016 130.57024 41.10336 14.51008 103.97696 45.93664 120.89344 94.30016 62.86336-2.41664 120.89344-16.92672 120.89344-53.1968v-12.09344c2.42688-36.25984-55.6032-67.69664-108.8-84.62336z m-435.22048 0c2.41664 0 16.92672-4.83328 7.24992-33.85344-24.17664-24.17664-41.10336-65.28-41.10336-106.38336 2.41664-60.44672 41.10336-94.30016 87.04-94.30016 33.85344 0 65.29024 16.92672 77.37344 50.78016-29.02016 24.17664-48.35328 60.44672-48.35328 108.8 0 50.78016 24.17664 99.13344 50.78016 130.57024-41.10336 14.51008-103.96672 45.93664-120.89344 94.30016-62.86336-2.41664-120.89344-16.92672-120.89344-53.1968v-12.09344c0-36.25984 58.03008-67.69664 108.8-84.62336z m0 0" fill="#3889FF" p-id="1586"></path><path d="M855.04 256.57344h-686.08c-16.896 0-30.72-13.824-30.72-30.72s13.824-30.72 30.72-30.72h686.08c16.896 0 30.72 13.824 30.72 30.72s-13.824 30.72-30.72 30.72z" fill="#3889FF" p-id="1587"></path><path d="M138.24 471.61344v-245.76c0-16.896 13.824-30.72 30.72-30.72s30.72 13.824 30.72 30.72v245.76c0 16.896-13.824 30.72-30.72 30.72s-30.72-13.824-30.72-30.72zM824.32 471.61344v-245.76c0-16.896 13.824-30.72 30.72-30.72s30.72 13.824 30.72 30.72v245.76c0 16.896-13.824 30.72-30.72 30.72s-30.72-13.824-30.72-30.72z" fill="#3889FF" p-id="1588"></path></svg>