<svg t="1584359267880" class="icon" viewBox="0 0 1024 1024" version="1.1" xmlns="http://www.w3.org/2000/svg" p-id="18204" width="200" height="200"><path d="M232.405843 710.816467V427.822576c0-136.941301 97.232404-251.036388 226.422311-277.282337v-33.997344c0-31.277556 25.294024-56.57158 56.57158-56.57158s56.57158 25.294024 56.571581 56.57158v33.997344c129.189907 26.24595 226.422311 140.341036 226.42231 277.282337v282.993891H826.815405c31.277556 0 56.57158 25.158035 56.57158 56.571581 0 31.277556-25.294024 56.57158-56.57158 56.57158H204.120053c-31.277556 0-56.57158-25.158035-56.57158-56.57158 0-31.277556 25.294024-56.57158 56.57158-56.571581h28.28579z m367.851262 169.714741c0 46.916335-37.941036 84.857371-84.857371 84.857371s-84.857371-37.941036-84.85737-84.857371h169.714741z" fill="#D81958" p-id="18205"></path><path d="M636.838247 535.118194c3.535724 10.743161 10.743161 17.950598 21.486321 17.950598s17.950598-7.207437 21.486322-17.950598l14.278884-197.184595c0-21.486321-17.950598-35.901195-35.901195-35.901195-21.486321 0-35.901195 17.950598-35.901195 39.436919l14.550863 193.648871z m21.486321 53.715803c-21.486321 0-35.901195 14.278884-35.901195 35.901196s14.278884 35.901195 35.901195 35.901195 35.901195-14.278884 35.901196-35.901195-14.414874-35.901195-35.901196-35.901196z" fill="#FFFFFF" p-id="18206"></path></svg>