<svg t="1584358961667" class="icon" viewBox="0 0 1024 1024" version="1.1" xmlns="http://www.w3.org/2000/svg" p-id="18070" width="200" height="200"><path d="M0 514.864128c0 280.95488 227.760128 508.720128 508.720128 508.720128 280.95488 0 508.720128-227.765248 508.720128-508.720128C1017.440256 233.904128 789.675008 6.144 508.720128 6.144 227.760128 6.144 0 233.904128 0 514.864128z m0 0" fill="#FFD026" p-id="18071"></path><path d="M743.588864 228.653056H278.639616c-56.991744 0.159744-103.155712 46.318592-103.315456 103.309312v300.854272c0 56.969216 46.439424 103.309312 103.315456 103.309312H338.0224l43.925504 113.744896c5.173248 10.297344 12.950528 15.465472 23.241728 15.465472 10.297344 0 20.632576-5.173248 23.247872-15.465472l43.918336-113.744896h265.964544c56.875008 0 103.40864-46.340096 103.40864-103.309312V331.918336c5.118976-56.781824-41.314304-103.26528-98.14016-103.26528z m51.602432 404.114432c-0.022528 28.498944-23.105536 51.602432-51.602432 51.651584H459.406336c-10.2912 0-20.632576 5.26848-23.192576 15.465472l-28.459008 69.819392-28.365824-69.77024c-5.173248-10.196992-12.901376-15.465472-23.241728-15.465472h-77.507584c-28.504064-0.055296-51.602432-23.14752-51.651584-51.657728v-300.89216c0-28.365824 23.28576-51.657728 51.651584-51.657728h464.949248c28.3648 0 51.602432 23.291904 51.602432 51.657728v300.849152zM317.919232 486.54336c0 20.01408 16.231424 36.240384 36.247552 36.240384 20.016128 0 36.236288-16.226304 36.236288-36.240384 0-20.016128-16.22016-36.241408-36.236288-36.241408-20.015104-0.001024-36.247552 16.22528-36.247552 36.241408z m152.022016 0a36.246528 36.246528 0 0 0 18.123776 31.387648 36.228096 36.228096 0 0 0 36.236288 0 36.246528 36.246528 0 0 0 18.123776-31.387648c0-20.016128-16.226304-36.241408-36.241408-36.241408-20.016128-0.001024-36.242432 16.22528-36.242432 36.241408z m153.0368 0c0 20.01408 16.226304 36.240384 36.241408 36.240384 20.01408 0 36.241408-16.226304 36.241408-36.240384 0-20.016128-16.227328-36.241408-36.241408-36.241408-20.016128-0.001024-36.241408 16.22528-36.241408 36.241408z m0 0" fill="#FFFFFF" p-id="18072"></path></svg>