<svg t="1581388744004" class="icon" viewBox="0 0 1024 1024" version="1.1" xmlns="http://www.w3.org/2000/svg" p-id="10660" width="128" height="128"><path d="M390.4 768a64 64 0 0 1-0.704 0H97.28C77.312 768 64 755.584 64 736.896v-112c0-56 46.72-99.52 106.688-99.52h126.656c45.568-43.328-27.904-97.216-38.08-199.04a224 224 0 1 1 422.848 58.368A320 320 0 0 0 390.4 768zM448 896H109.696C82.304 896 64 883.2 64 864s18.304-32 45.696-32h300.928c9.984 22.848 22.528 44.288 37.376 64z" fill="#d4237a" p-id="10661"></path><path d="M704 960a256 256 0 1 1 0-512 256 256 0 0 1 0 512z m116.032-373.44l-155.584 169.792-55.936-60.096a40.384 40.384 0 0 0-60.032 0 48 48 0 0 0 0 64.448l85.952 92.288c8.32 8.96 19.2 13.376 30.016 13.376a40.896 40.896 0 0 0 33.216-17.216 44.032 44.032 0 0 0 3.52-3.392l178.88-194.752a48 48 0 0 0 0-64.448 40.384 40.384 0 0 0-60.032 0z" fill="#d4237a" p-id="10662"></path></svg>