<svg t="1587182680053" class="icon" viewBox="0 0 1024 1024" version="1.1" xmlns="http://www.w3.org/2000/svg" p-id="4808" width="200" height="200"><path d="M896 64a64 64 0 0 1 64 64v832a64 64 0 0 1-64 64H128a64 64 0 0 1-64-64V128a64 64 0 0 1 64-64h768z m-192 512H320a64 64 0 1 0 0 128h384a64 64 0 0 0 0-128z m0-256H320a64 64 0 0 0-7.488 127.552L320 448h384a64 64 0 0 0 0-128z" fill="#F8D71C" p-id="4809"></path><path d="M256 0m96 0l320 0q96 0 96 96l0 0q0 96-96 96l-320 0q-96 0-96-96l0 0q0-96 96-96Z" fill="#F5A623" p-id="4810"></path></svg>