<svg t="1590934997451" class="icon" viewBox="0 0 1024 1024" version="1.1" xmlns="http://www.w3.org/2000/svg" p-id="3622" width="200" height="200"><path d="M64 0h704c32 0 57.6 25.6 64 57.6V467.2c108.8 38.4 192 147.2 192 268.8 0 160-128 288-288 288-70.4 0-134.4-25.6-179.2-64H64c-32 0-57.6-25.6-64-57.6V64C0 32 25.6 6.4 57.6 0H768 64z m672 512C614.4 512 512 614.4 512 736S614.4 960 736 960s224-102.4 224-224c0-108.8-76.8-204.8-185.6-217.6H768c-12.8-6.4-19.2-6.4-32-6.4z m32-448H64v832h435.2c-32-44.8-51.2-102.4-51.2-160C448 576 576 448 736 448h32V64z m70.4 576c12.8-12.8 32-12.8 44.8-6.4 12.8 12.8 12.8 32 6.4 44.8l-166.4 192c-12.8 12.8-32 12.8-44.8 0l-89.6-96c-12.8-12.8-12.8-32 0-44.8s32-12.8 44.8 0l64 70.4 140.8-160z" fill="#6D6DF2" p-id="3623"></path><path d="M192 192h384c19.2 0 32 12.8 32 32S595.2 256 576 256H192c-19.2 0-32-12.8-32-32S172.8 192 192 192zM192 704h128c19.2 0 32 12.8 32 32s-12.8 32-32 32H192c-19.2 0-32-12.8-32-32s12.8-32 32-32zM192 531.2h128c19.2 0 32 12.8 32 32s-12.8 32-32 32H192c-19.2 0-32-12.8-32-32 0-12.8 12.8-32 32-32zM192 364.8h256c19.2 0 32 12.8 32 32s-12.8 32-32 32H192c-19.2 0-32-12.8-32-32s12.8-32 32-32z" fill="#6D6DF2" p-id="3624"></path></svg>