<?xml version="1.0" standalone="no"?><!DOCTYPE svg PUBLIC "-//W3C//DTD SVG 1.1//EN" "http://www.w3.org/Graphics/SVG/1.1/DTD/svg11.dtd"><svg t="1588512451189" class="icon" viewBox="0 0 1024 1024" version="1.1" xmlns="http://www.w3.org/2000/svg" p-id="3813" xmlns:xlink="http://www.w3.org/1999/xlink" width="32" height="32"><defs><style type="text/css"></style></defs><path d="M661.333333 580.416a117.333333 117.333333 0 1 1-64 0V256a32 32 0 0 1 64 0v324.416zM490.666667 192a128 128 0 0 1 128-128h21.333333a128 128 0 0 1 128 128v273.493333c76.757333 46.826667 128 131.349333 128 227.84C896 840.618667 776.618667 960 629.333333 960S362.666667 840.618667 362.666667 693.333333c0-96.490667 51.242667-181.013333 128-227.84V192z m33.322666 328.149333a202.666667 202.666667 0 1 0 210.688 0A64 64 0 0 1 704 465.514667V192a64 64 0 0 0-64-64h-21.333333a64 64 0 0 0-64 64v273.493333a64 64 0 0 1-30.677334 54.656zM629.333333 746.666667a53.333333 53.333333 0 1 0 0-106.666667 53.333333 53.333333 0 0 0 0 106.666667z m-256-352a32 32 0 0 1 0 64h-128a32 32 0 0 1 0-64h128z m0-128a32 32 0 0 1 0 64H128a32 32 0 0 1 0-64h245.333333z m0-128a32 32 0 0 1 0 64h-192a32 32 0 0 1 0-64h192z" fill="#d4237a" p-id="3814"></path></svg>